<?xml version="1.0" standalone="no"?><svg xmlns="http://www.w3.org/2000/svg" viewBox="0 0 1440 320"><path fill="#a2d9ff" fill-opacity="1" d="M0,96L24,128C48,160,96,224,144,229.3C192,235,240,181,288,160C336,139,384,149,432,133.3C480,117,528,75,576,85.3C624,96,672,160,720,176C768,192,816,160,864,128C912,96,960,64,1008,42.7C1056,21,1104,11,1152,48C1200,85,1248,171,1296,181.3C1344,192,1392,128,1416,96L1440,64L1440,0L1416,0C1392,0,1344,0,1296,0C1248,0,1200,0,1152,0C1104,0,1056,0,1008,0C960,0,912,0,864,0C816,0,768,0,720,0C672,0,624,0,576,0C528,0,480,0,432,0C384,0,336,0,288,0C240,0,192,0,144,0C96,0,48,0,24,0L0,0Z"></path></svg>